<svg version="1.1" id="Layer_1" xmlns="http://www.w3.org/2000/svg" xmlns:xlink="http://www.w3.org/1999/xlink" x="0px" y="0px"
	 width="100%" viewBox="0 0 800 592" enable-background="new 0 0 800 592" xml:space="preserve">
<path fill="#000000" opacity="1.000000" stroke="none" 
	d="
M430.411987,306.732147 
	C433.669281,318.435364 436.852386,329.740417 440.255798,341.827911 
	C432.906464,342.557831 426.476715,342.496033 420.085815,341.978058 
	C417.331207,341.754730 417.514954,338.752014 416.987000,336.802307 
	C413.162476,322.678040 409.481110,308.515015 405.708588,294.376526 
	C405.209198,292.504883 405.039124,290.356750 402.726379,289.539062 
	C398.589569,288.076477 396.100159,289.854065 396.087219,294.434845 
	C396.048157,308.259644 395.926941,322.086456 396.122192,335.908447 
	C396.187958,340.562439 394.759125,342.362640 389.854034,342.346222 
	C373.754791,342.292267 373.751862,342.458527 373.751038,326.384491 
	C373.749481,295.403198 373.742645,264.421906 373.757538,233.440613 
	C373.760773,226.692291 373.802948,226.520142 380.312134,226.685425 
	C391.448151,226.968231 402.621124,225.762772 413.721375,227.513062 
	C429.432526,229.990402 436.510681,237.263031 438.109314,253.039108 
	C438.767761,259.536835 438.080841,266.004059 436.177917,272.289093 
	C434.830261,276.740173 432.393219,280.545990 428.373260,282.922363 
	C425.112274,284.850098 424.787231,287.239441 425.804291,290.507843 
	C427.434387,295.746216 428.838257,301.054993 430.411987,306.732147 
M417.668762,258.452667 
	C417.407227,245.582825 412.699524,241.210144 400.246735,241.977600 
	C397.307129,242.158768 396.066315,243.291687 396.087982,246.216583 
	C396.150818,254.691254 396.155548,263.167175 396.078491,271.641602 
	C396.051117,274.651947 397.361176,275.685822 400.310974,275.681152 
	C412.026337,275.662628 416.978394,271.071167 417.668762,258.452667 
z"/>
<path fill="#000000" opacity="1.000000" stroke="none" 
	d="
M620.562927,341.838379 
	C615.134583,342.090363 610.138855,342.114044 605.146301,342.251648 
	C602.097900,342.335663 600.593140,341.270935 600.599609,337.928467 
	C600.668945,302.266479 600.672058,266.604187 600.602600,230.942200 
	C600.596191,227.648178 601.911377,226.511856 605.058594,226.632706 
	C608.885498,226.779663 612.739685,226.878586 616.551270,226.590729 
	C620.855225,226.265656 622.441406,227.755936 622.351196,232.225677 
	C622.102478,244.552322 622.406128,256.889587 622.205811,269.218018 
	C622.140015,273.267670 623.312012,275.012878 627.558228,274.712158 
	C631.703674,274.418579 635.892334,274.502716 640.050171,274.687897 
	C643.567688,274.844574 644.726257,273.335388 644.696838,269.948151 
	C644.588257,257.450684 644.856812,244.947021 644.562195,232.455627 
	C644.451050,227.742432 646.113586,226.203537 650.587830,226.608826 
	C653.562378,226.878281 656.582275,226.640656 659.581909,226.640747 
	C666.286377,226.640945 666.311646,226.643677 666.316711,233.147858 
	C666.333496,254.645157 666.330688,276.142456 666.334534,297.639740 
	C666.336792,310.471466 666.137634,323.307861 666.440063,336.132507 
	C666.556030,341.048248 664.819153,342.379791 660.113708,342.349548 
	C644.661438,342.250275 644.662903,342.404663 644.662170,326.868622 
	C644.661682,316.536591 644.520935,306.202057 644.715149,295.873749 
	C644.789795,291.900482 643.694397,289.976044 639.393372,290.270782 
	C635.412537,290.543610 631.387451,290.513275 627.401917,290.277130 
	C623.425415,290.041504 622.175842,291.712708 622.218323,295.550507 
	C622.367737,309.047119 622.296387,322.546570 622.245605,336.044678 
	C622.238342,337.968750 622.822449,340.105072 620.562927,341.838379 
z"/>
<path fill="#000000" opacity="1.000000" stroke="none" 
	d="
M317.433594,225.943802 
	C323.672577,225.397110 329.547760,225.051590 335.295685,225.975586 
	C349.243774,228.217728 357.387573,237.662186 358.131744,253.306519 
	C358.838257,268.158752 359.628265,265.081848 347.197083,265.308075 
	C337.980042,265.475769 337.977600,265.340607 337.644104,256.189819 
	C337.301056,246.776871 335.199402,243.309402 328.982513,241.899063 
	C323.094513,240.563354 318.226807,243.304337 316.629944,249.092270 
	C315.837616,251.964096 315.296967,254.897430 315.309631,257.948669 
	C315.381531,275.272675 315.382477,292.597321 315.311401,309.921326 
	C315.298187,313.141602 315.888000,316.222321 316.805695,319.236298 
	C318.194153,323.796387 321.069397,326.513336 326.164276,326.767426 
	C331.466736,327.031860 335.258545,325.166443 337.210358,320.134338 
	C339.760498,313.559692 339.006714,306.678955 338.791382,299.889618 
	C338.689697,296.683380 335.888947,297.430573 333.826660,297.198883 
	C331.493439,296.936768 328.174896,298.360596 327.256226,295.225067 
	C326.192810,291.595551 326.182892,287.621429 327.436798,283.929901 
	C327.910767,282.534515 329.676422,282.717072 330.997406,282.713318 
	C338.993134,282.690491 346.989380,282.741425 354.984528,282.667816 
	C357.908112,282.640900 359.223724,283.830627 359.215332,286.816223 
	C359.167450,303.807159 359.162598,320.798431 359.223541,337.789276 
	C359.234985,340.982300 357.857147,342.121674 354.723938,342.277191 
	C344.934296,342.763123 344.939026,342.858398 342.953156,332.599182 
	C336.587646,343.511627 326.921326,344.611359 316.318268,342.774261 
	C305.190704,340.846283 299.026215,333.576447 295.816010,323.272064 
	C293.609192,316.188599 293.396454,308.846161 293.369507,301.540131 
	C293.317932,287.550720 293.578674,273.560394 293.648682,259.570160 
	C293.674744,254.362274 294.630402,249.300552 296.083374,244.360504 
	C299.164032,233.886429 306.393951,227.984100 317.433594,225.943802 
z"/>
<path fill="#000000" opacity="1.000000" stroke="none" 
	d="
M502.324066,270.872070 
	C506.744049,293.281952 511.010315,315.290558 515.587402,337.234314 
	C516.434753,341.296753 515.233521,342.399200 511.527679,342.266174 
	C508.533936,342.158691 505.497253,341.962677 502.543030,342.324341 
	C497.423218,342.951080 495.364349,340.691742 494.880920,335.810699 
	C494.390839,330.862671 493.327240,325.973572 492.597046,321.046478 
	C492.044006,317.314972 490.644165,315.148071 486.198792,315.300232 
	C470.258667,315.845734 473.428680,312.613525 470.219635,329.040314 
	C467.178436,344.607910 470.909485,342.064453 454.907654,342.239929 
	C447.190521,342.324554 447.165894,342.219574 448.640991,334.814148 
	C455.387970,300.942413 462.236053,267.090363 468.809967,233.185089 
	C469.774445,228.210724 471.596222,225.937271 476.924286,226.558990 
	C481.032104,227.038361 485.243774,226.761124 489.402802,226.623932 
	C492.505890,226.521576 493.792572,227.915512 494.364685,230.891113 
	C496.903381,244.095886 499.623199,257.265869 502.324066,270.872070 
M478.408325,278.756836 
	C477.728973,283.175293 477.016174,287.588928 476.377197,292.013214 
	C475.043457,301.248047 475.671814,301.799438 484.955566,300.985901 
	C488.093018,300.710999 488.966888,299.325195 488.461823,296.442047 
	C487.776611,292.530426 487.415222,288.553345 486.564178,284.681396 
	C484.952240,277.347626 484.721680,269.728149 482.105377,261.480988 
	C479.820953,267.483307 479.859894,272.844696 478.408325,278.756836 
z"/>
<path fill="#000000" opacity="1.000000" stroke="none" 
	d="
M590.214905,260.902344 
	C589.778137,264.489166 589.616882,267.681335 588.874390,270.732025 
	C585.769409,283.489441 575.733582,290.796600 561.010925,291.238708 
	C548.283875,291.620880 548.286133,291.620880 548.287415,304.479218 
	C548.288391,315.311127 548.178589,326.144531 548.337463,336.974091 
	C548.393494,340.791351 547.129456,342.530304 543.159302,342.291992 
	C539.672424,342.082733 536.162720,342.268921 532.663330,342.249146 
	C526.278931,342.213104 526.046753,341.988342 526.038452,335.356476 
	C526.027649,326.691010 526.074219,318.025482 526.074646,309.359985 
	C526.075989,284.196655 526.050842,259.033325 526.071228,233.869995 
	C526.077087,226.671463 526.132141,226.656830 533.304382,226.650284 
	C542.803101,226.641602 552.301941,226.641205 561.800598,226.668732 
	C578.226990,226.716339 587.828430,235.559082 589.379761,252.025482 
	C589.644165,254.832779 589.941223,257.636993 590.214905,260.902344 
M569.591797,260.215454 
	C569.857117,257.528259 569.290894,254.926193 568.850647,252.299728 
	C567.786194,245.948120 565.601379,243.564865 559.363342,242.619080 
	C557.081360,242.273071 554.718994,242.486023 552.397705,242.362381 
	C549.337524,242.199417 548.293030,243.784134 548.309692,246.628616 
	C548.358398,254.944229 548.312012,263.260345 548.325623,271.576263 
	C548.327759,272.896179 548.301025,274.229462 549.642456,275.116821 
	C554.681641,278.450531 567.265686,273.090881 568.588745,266.980957 
	C569.010132,265.034943 569.209839,263.040924 569.591797,260.215454 
z"/>
<path fill="#000000" opacity="1.000000" stroke="none" 
	d="
M263.031158,289.972229 
	C259.220551,300.144989 255.562088,309.967529 251.852310,319.770660 
	C251.000443,322.021698 250.938965,324.067596 251.633591,326.503204 
	C253.489929,333.012207 252.627213,339.156036 247.090515,343.735626 
	C242.018982,347.930420 236.205841,348.625671 230.242996,345.900360 
	C223.728683,342.923004 221.050995,337.402313 221.488632,330.497009 
	C221.648880,327.968201 220.770615,326.404785 219.115616,324.863342 
	C214.973419,321.005371 210.232407,317.579468 206.907730,313.106079 
	C202.386124,307.022247 196.330383,306.746582 189.917175,306.546906 
	C189.589432,306.536743 189.158600,306.487396 188.944412,306.662506 
	C181.249603,312.953857 170.810287,316.102417 166.347641,326.090820 
	C162.784927,334.064972 154.311981,337.831116 146.059189,334.913940 
	C138.279572,332.163971 134.084793,323.550842 136.574112,315.438202 
	C139.109344,307.175903 147.429413,302.327423 155.871124,305.018524 
	C159.529404,306.184753 161.841522,305.306366 164.433289,303.264648 
	C166.917526,301.307678 169.407623,299.325897 172.077209,297.643951 
	C176.080154,295.121918 178.545380,292.165741 179.043243,286.988159 
	C179.634705,280.837250 186.164780,276.022644 192.554413,275.676483 
	C200.477737,275.247223 207.783447,279.079559 208.829590,285.901581 
	C209.876633,292.729401 213.781921,296.810303 218.392441,300.967529 
	C223.816971,305.858765 229.053238,310.958801 234.546967,316.133942 
	C236.420319,314.147400 236.833252,311.815094 237.635483,309.715942 
	C240.367920,302.565979 242.900635,295.338226 245.718460,288.222870 
	C247.575882,283.532654 248.605988,279.250275 246.776413,273.970581 
	C244.011139,265.990784 249.127411,257.702271 257.201508,255.203705 
	C265.085999,252.763840 274.596375,257.082428 276.700165,264.801025 
	C278.976349,273.152039 277.048187,281.246918 267.771393,284.980133 
	C265.349304,285.954834 263.729462,287.095947 263.031158,289.972229 
M235.120483,340.624664 
	C236.116882,340.657074 237.122131,340.790894 238.108154,340.704620 
	C242.903976,340.285095 246.827072,335.923920 246.622925,331.307495 
	C246.419022,326.696777 241.453079,322.196808 236.827423,322.431183 
	C231.839981,322.683868 227.997574,327.063019 228.204254,332.199432 
	C228.372330,336.376526 230.706131,338.904572 235.120483,340.624664 
M143.573242,315.247681 
	C141.451218,319.199524 141.665039,323.045044 144.728165,326.313477 
	C146.951889,328.686249 149.798157,330.020630 153.276459,329.004608 
	C157.549255,327.756500 160.201508,325.056335 160.612579,320.578644 
	C160.971252,316.671753 159.059464,313.697693 155.649200,312.088837 
	C151.288177,310.031403 147.222702,310.696777 143.573242,315.247681 
M200.957138,284.550354 
	C194.326187,279.284088 186.339142,281.467896 185.203995,288.914459 
	C184.529831,293.336884 186.102829,296.862305 190.210129,298.832764 
	C194.090118,300.694153 197.740540,299.948822 200.687637,296.824890 
	C204.113297,293.193665 204.464951,289.222290 200.957138,284.550354 
M268.375854,276.800049 
	C273.176514,270.053955 270.797485,262.458557 263.508698,261.361481 
	C258.995483,260.682190 255.685394,262.629486 253.629913,266.522217 
	C251.565765,270.431396 252.702484,273.976166 255.673706,276.943146 
	C259.169556,280.434052 262.540009,280.474365 268.375854,276.800049 
z"/>
<path fill="#000000" opacity="1.000000" stroke="none" 
	d="
M378.999847,368.331055 
	C354.384644,368.014893 330.260529,368.957062 306.153351,367.783997 
	C305.862457,367.769806 305.606415,367.040100 305.338257,366.650391 
	C309.001007,363.639587 397.875061,363.801575 401.323730,367.372009 
	C393.806488,369.277588 386.586243,367.894958 378.999847,368.331055 
z"/>
<path fill="#000000" opacity="1.000000" stroke="none" 
	d="
M593.000000,364.671814 
	C613.300781,364.906616 633.108154,364.188202 652.901794,365.119232 
	C653.324585,365.139099 653.707764,366.000732 654.120789,366.482941 
	C650.673645,369.062317 562.847351,369.160828 558.047241,366.009094 
	C564.306702,363.679138 570.025757,364.996704 575.517822,364.756531 
	C581.168945,364.509430 586.838501,364.683044 593.000000,364.671814 
z"/>
<path fill="#000000" opacity="1.000000" stroke="none" 
	d="
M455.024994,359.497742 
	C456.109924,356.955688 457.850006,356.331177 458.086975,359.064545 
	C458.566620,364.596741 458.764618,370.230164 457.743103,376.530304 
	C452.006714,374.234131 451.850372,368.226410 447.981506,364.976196 
	C446.582550,368.529541 448.166260,372.512970 446.590881,375.914795 
	C443.718964,375.501587 444.010315,373.576233 443.972198,372.039795 
	C443.889618,368.713623 443.920593,365.380707 444.036316,362.055084 
	C444.097290,360.303284 443.604309,357.997894 445.797729,357.305023 
	C448.174438,356.554230 448.727386,358.976013 449.661133,360.415924 
	C451.151398,362.713959 452.487122,365.112183 454.163391,367.930817 
	C455.476959,364.823761 454.624451,362.314789 455.024994,359.497742 
z"/>
<path fill="#000000" opacity="1.000000" stroke="none" 
	d="
M534.337891,369.849426 
	C534.325256,371.320496 534.359314,372.321411 534.285583,373.314301 
	C534.200806,374.455658 534.248474,375.755341 532.690125,376.010559 
	C531.287659,376.240356 530.580505,375.250854 529.951843,374.252563 
	C528.977905,372.705902 528.069641,371.118011 527.102356,369.567017 
	C526.236084,368.177917 525.327820,366.815033 524.175598,365.035187 
	C522.968689,367.077454 523.556885,368.904724 523.341003,370.589111 
	C523.118408,372.326447 523.845154,374.252014 522.373657,375.748993 
	C520.382019,376.002106 520.056152,374.569458 520.036499,373.260834 
	C519.971741,368.941498 520.025024,364.618713 520.128235,360.299561 
	C520.159668,358.985107 520.330688,357.480652 522.024536,357.210358 
	C523.663757,356.948730 524.294983,358.340546 524.979492,359.452820 
	C526.614624,362.109497 528.195740,364.799438 529.958008,367.742035 
	C532.393799,364.392029 528.918518,359.779755 533.235779,356.989746 
	C535.293335,361.241302 533.910461,365.404816 534.337891,369.849426 
z"/>
<path fill="#000000" opacity="1.000000" stroke="none" 
	d="
M509.717407,376.587677 
	C502.251038,375.625122 499.950806,372.381622 500.709442,364.473114 
	C501.192200,359.441010 504.388214,356.481506 509.155273,356.652283 
	C513.396851,356.804230 516.380188,359.787354 517.182983,364.679443 
	C518.127136,370.432709 515.617615,374.622467 509.717407,376.587677 
M507.757111,360.288208 
	C504.115723,362.847809 502.950195,367.505920 505.219055,370.931000 
	C506.641144,373.077759 508.455170,374.330750 511.014709,372.448181 
	C513.821106,370.384003 514.574890,365.628326 512.615784,362.545166 
	C511.646698,361.020020 510.329102,360.194305 507.757111,360.288208 
z"/>
<path fill="#000000" opacity="1.000000" stroke="none" 
	d="
M424.728638,368.685577 
	C424.775146,366.601257 424.590485,364.884003 424.960846,363.296173 
	C425.831116,359.565155 428.110992,357.100006 432.108582,356.703674 
	C436.089264,356.308960 438.879517,358.093658 440.359497,361.748688 
	C441.944489,365.663300 441.880890,369.574982 439.491486,373.178558 
	C437.669464,375.926453 434.964935,376.975342 431.707092,376.493469 
	C427.460083,375.865295 425.483307,373.066681 424.728638,368.685577 
M437.510406,364.201111 
	C436.587830,361.632324 435.005798,359.855377 432.037964,360.312653 
	C429.509430,360.702271 428.587799,362.699371 428.365234,364.948151 
	C428.008972,368.546783 428.144409,372.714417 432.490631,373.178131 
	C437.050415,373.664612 437.721344,369.680206 437.685211,365.960388 
	C437.682037,365.632019 437.648529,365.303925 437.510406,364.201111 
z"/>
<path fill="#000000" opacity="1.000000" stroke="none" 
	d="
M552.319092,369.057587 
	C552.275574,372.119720 552.914856,375.073425 549.449341,376.167297 
	C545.815308,377.314392 542.455383,376.835999 539.888306,373.828033 
	C536.706726,370.100037 537.020508,365.723328 538.559082,361.568848 
	C539.915527,357.906036 543.076233,356.386475 546.988342,356.665100 
	C549.020386,356.809845 550.966431,357.154205 551.413452,359.568329 
	C550.617310,361.242401 549.387085,360.602020 548.315796,360.364166 
	C545.558472,359.752014 543.147278,360.367279 541.968506,362.993469 
	C540.697205,365.825714 540.590698,368.909424 542.669128,371.496704 
	C543.942017,373.081268 545.857178,374.524078 547.817261,372.839142 
	C549.838501,371.101624 548.244812,369.646545 546.745483,368.397766 
	C546.410217,368.118439 546.297424,367.571930 545.922180,366.833496 
	C548.692505,365.646515 551.216797,364.194244 552.319092,369.057587 
z"/>
<path fill="#000000" opacity="1.000000" stroke="none" 
	d="
M416.422485,368.478149 
	C408.958679,366.398163 411.020935,372.796509 409.561737,375.941437 
	C405.996521,373.415924 405.727264,360.826660 409.066498,357.188873 
	C411.760010,359.017548 408.334137,365.075745 414.611664,364.746887 
	C420.117493,364.458405 416.045776,358.162140 420.754578,357.217438 
	C421.808716,363.491821 421.325256,369.564606 421.062592,376.169434 
	C416.402374,374.780396 419.185669,370.363922 416.422485,368.478149 
z"/>
<path fill="#000000" opacity="1.000000" stroke="none" 
	d="
M498.531586,372.477417 
	C499.174683,373.649963 499.792236,374.472015 499.359222,375.868286 
	C494.268555,376.433289 495.192657,370.087769 491.634949,368.972626 
	C487.574799,369.611115 490.854858,374.753845 487.546875,375.899597 
	C485.088409,372.863586 484.858643,361.438995 487.165283,357.357788 
	C490.435638,357.924896 488.479858,361.020477 489.952759,362.811523 
	C493.325195,362.236176 493.909943,356.799957 499.571564,357.319916 
	C494.140015,362.404297 494.008575,367.315094 498.531586,372.477417 
z"/>
<path fill="#000000" opacity="1.000000" stroke="none" 
	d="
M475.417267,359.042694 
	C474.832031,361.792175 473.150970,360.468445 471.871338,360.264038 
	C468.736115,359.763214 466.472107,361.083984 465.662323,363.922211 
	C464.789307,366.982025 464.671417,370.276031 467.736084,372.500824 
	C469.302704,373.638092 471.182007,374.223694 472.650879,372.444611 
	C474.526947,370.172394 472.479858,369.349243 470.902313,368.384613 
	C470.538483,368.162140 470.370392,367.619659 469.961212,366.993286 
	C472.309967,365.429932 475.013611,364.473877 475.944977,367.637756 
	C476.779449,370.472412 477.842804,374.415161 473.475800,376.166412 
	C469.741272,377.663971 465.224670,376.099945 463.022766,372.630432 
	C460.547577,368.730286 461.197815,361.743652 464.651428,358.817719 
	C468.020477,355.963470 471.714203,355.340637 475.417267,359.042694 
z"/>
</svg>